<svg width="139" height="139" viewBox="0 0 139 139" fill="none" xmlns="http://www.w3.org/2000/svg">
<path d="M111.488 49.0627C110.1 48.5885 108.701 48.1468 107.293 47.7378C107.527 46.7876 107.742 45.832 107.939 44.8709C111.116 29.4235 109.039 16.9786 101.951 12.8819C95.1634 8.95084 84.0326 13.0475 72.804 22.8427C71.6999 23.8092 70.6185 24.8046 69.5597 25.829C68.8539 25.1485 68.1299 24.4825 67.3879 23.8309C55.619 13.357 43.823 8.94541 36.7427 13.0557C29.9556 16.9949 27.9385 28.6932 30.7972 43.3343C31.0832 44.7823 31.4044 46.2238 31.761 47.6591C30.0913 48.1342 28.4787 48.6419 26.9367 49.1794C13.1561 53.9982 4.34375 61.5536 4.34375 69.3887C4.34375 77.4844 13.8023 85.6017 28.1719 90.5238C29.3375 90.9201 30.5139 91.2884 31.7012 91.6287C31.3157 93.1653 30.9746 94.7191 30.6777 96.2901C27.9629 110.679 30.0805 122.1 36.854 126.015C43.8502 130.057 55.5864 125.904 67.0268 115.886C67.9317 115.093 68.8367 114.256 69.7416 113.375C70.8855 114.48 72.0619 115.554 73.2709 116.594C84.3475 126.145 95.2856 130.003 102.048 126.077C109.039 122.021 111.311 109.75 108.36 94.8213C108.134 93.6811 107.873 92.5174 107.578 91.3301C108.404 91.0857 109.212 90.8332 110.003 90.5726C124.934 85.6126 134.662 77.5929 134.662 69.3968C134.656 61.5238 125.562 53.9195 111.488 49.0627ZM76.4663 27.0507C86.085 18.6591 95.0765 15.347 99.176 17.7144C103.539 20.2364 105.235 30.4063 102.493 43.7443C102.313 44.613 102.117 45.4791 101.907 46.3424C96.1669 45.0367 90.346 44.1153 84.4832 43.5841C81.1264 38.7486 77.4466 34.1455 73.4691 29.8063C74.4428 28.8615 75.4401 27.943 76.4609 27.0507H76.4663ZM42.8212 76.0835C43.9995 78.364 45.2311 80.6164 46.5161 82.8407C47.8247 85.1104 49.1884 87.3465 50.6074 89.5491C46.5733 89.1105 42.5645 88.4645 38.5969 87.6134C39.748 83.8887 41.1652 80.02 42.8212 76.0835ZM42.8212 62.9627C41.1923 59.1103 39.8132 55.3204 38.6811 51.6608C42.4004 50.8273 46.3641 50.1459 50.4961 49.6301C49.1115 51.7911 47.7794 53.9838 46.4998 56.2081C45.2202 58.4325 43.9913 60.684 42.8131 62.9627H42.8212ZM45.7804 69.5244C47.4962 65.9463 49.3441 62.4369 51.3241 58.9963C53.3023 55.5575 55.4082 52.1974 57.6416 48.9161C61.5184 48.6228 65.4929 48.4681 69.5081 48.4681C73.5234 48.4681 77.5224 48.6229 81.3964 48.9188C83.6063 52.1929 85.6995 55.5412 87.6759 58.9637C89.6523 62.3862 91.5246 65.8793 93.2929 69.443C91.5482 73.0338 89.6803 76.5577 87.6895 80.0146C85.7149 83.4534 83.6335 86.8234 81.4453 90.1247C77.5767 90.3962 73.5723 90.5455 69.5 90.5455C65.4277 90.5455 61.4994 90.4179 57.7013 90.1708C55.4516 86.8786 53.3286 83.5041 51.3323 80.0472C49.336 76.5903 47.4826 73.0827 45.7723 69.5244H45.7804ZM92.5083 82.8027C93.8205 80.5259 95.0802 78.2192 96.2874 75.8826C97.9422 79.6348 99.4029 83.4696 100.664 87.3718C96.6494 88.2757 92.5906 88.969 88.5039 89.4487C89.883 87.2605 91.2178 85.0452 92.5083 82.8027ZM96.2331 62.9654C95.0313 60.6758 93.7816 58.4135 92.4839 56.1783C91.2169 53.9738 89.8966 51.7965 88.5229 49.6463C92.6793 50.173 96.6674 50.8735 100.406 51.7286C99.2038 55.5417 97.8112 59.292 96.2331 62.9654ZM69.5624 33.7944C72.2733 36.7565 74.8331 39.8536 77.2319 43.0737C72.1008 42.8294 66.9661 42.8294 61.8279 43.0737C64.3608 39.7236 66.9535 36.6151 69.5624 33.7944ZM39.5444 17.88C43.9045 15.3497 53.5449 18.9659 63.7065 27.9982C64.3554 28.5764 65.0096 29.1819 65.6612 29.809C61.6632 34.1476 57.9575 38.7467 54.5684 43.576C48.7186 44.103 42.9092 45.0099 37.1771 46.2908C36.8459 44.9587 36.5472 43.6176 36.2812 42.2674C33.8242 29.7167 35.4504 20.2554 39.5444 17.88ZM33.189 86.2533C32.103 85.9438 31.0307 85.6081 29.9719 85.2461C23.6191 83.0742 18.3713 80.2399 14.7688 77.1531C11.5435 74.3867 9.90918 71.6257 9.90918 69.3887C9.90918 64.635 16.9841 58.57 28.7828 54.457C30.2651 53.9412 31.7601 53.4698 33.2677 53.0426C35.02 58.674 37.1422 64.1835 39.6204 69.5353C37.1126 74.961 34.9642 80.5457 33.189 86.2533ZM63.359 111.683C58.3013 116.114 53.2354 119.255 48.7695 120.838C44.7569 122.258 41.5615 122.298 39.6313 121.182C35.521 118.807 33.8107 109.634 36.1427 97.3299C36.4196 95.882 36.7364 94.434 37.0929 92.9861C42.8824 94.2333 48.7501 95.085 54.6552 95.5354C58.0774 100.39 61.8138 105.015 65.8404 109.381C65.0314 110.177 64.2033 110.942 63.359 111.683ZM69.7172 105.379C67.0784 102.526 64.445 99.3687 61.8767 95.9752C64.3726 96.0729 66.9137 96.1218 69.5 96.1218C72.1551 96.1218 74.7831 96.0648 77.373 95.948C74.9829 99.2198 72.4277 102.368 69.7172 105.379ZM103.522 113.141C102.746 117.333 101.185 120.129 99.2547 121.248C95.1471 123.631 86.3646 120.534 76.8952 112.365C75.8093 111.431 74.7234 110.429 73.6184 109.378C77.5666 104.995 81.2154 100.351 84.5402 95.4783C90.4781 94.9753 96.3742 94.0636 102.187 92.7499C102.453 93.825 102.688 94.8784 102.893 95.91C104.198 102.507 104.386 108.474 103.522 113.141ZM108.246 85.276C107.535 85.5121 106.802 85.7402 106.058 85.9628C104.235 80.3049 102.03 74.7774 99.4583 69.4186C101.934 64.1311 104.053 58.6838 105.8 53.1132C107.133 53.5014 108.428 53.9087 109.674 54.3403C121.734 58.4995 129.091 64.6567 129.091 69.3887C129.091 74.4383 121.144 80.9919 108.246 85.276Z" fill="#3A3A3A"/>
<path d="M69.5 81.0517C71.8105 81.0592 74.0712 80.3809 75.996 79.1028C77.9207 77.8246 79.4229 76.0041 80.3123 73.8716C81.2017 71.7392 81.4383 69.3908 80.9921 67.1238C80.546 64.8568 79.4372 62.7732 77.8061 61.1367C76.175 59.5003 74.095 58.3847 71.8295 57.9312C69.5639 57.4777 67.2148 57.7066 65.0795 58.589C62.9441 59.4715 61.1187 60.9677 59.8342 62.8883C58.5498 64.8088 57.8642 67.0674 57.8642 69.3778C57.861 70.9086 58.1595 72.4249 58.7426 73.8402C59.3258 75.2555 60.1821 76.5421 61.2628 77.6262C62.3434 78.7104 63.6271 79.5709 65.0405 80.1587C66.4539 80.7464 67.9693 81.0499 69.5 81.0517Z" fill="#3A3A3A"/>
</svg>
