<svg width="1251" height="380" viewBox="0 0 1251 380" fill="none" xmlns="http://www.w3.org/2000/svg">
<rect y="52" width="321.895" height="270" rx="25" fill="#3A3A3A"/>
<rect x="149.059" y="322" width="23.7763" height="29" fill="#2F2F2F"/>
<rect x="12.7064" y="62.5195" width="296.482" height="248.961" rx="25" fill="white"/>
<path d="M198.887 167.063C197.617 166.588 196.339 166.147 195.051 165.738C195.265 164.788 195.462 163.832 195.642 162.871C198.547 147.423 196.648 134.979 190.165 130.882C183.959 126.951 173.78 131.048 163.512 140.843C162.502 141.809 161.513 142.805 160.545 143.829C159.899 143.149 159.237 142.482 158.559 141.831C147.796 131.357 137.009 126.945 130.534 131.056C124.328 134.995 122.483 146.693 125.097 161.334C125.359 162.782 125.653 164.224 125.979 165.659C124.452 166.134 122.977 166.642 121.567 167.179C108.965 171.998 100.906 179.554 100.906 187.389C100.906 195.484 109.556 203.602 122.697 208.524C123.763 208.92 124.838 209.288 125.924 209.629C125.572 211.165 125.26 212.719 124.988 214.29C122.506 228.679 124.442 240.1 130.636 244.015C137.034 248.057 147.767 243.904 158.228 233.886C159.056 233.093 159.884 232.256 160.711 231.375C161.757 232.48 162.833 233.554 163.939 234.594C174.068 244.145 184.07 248.003 190.255 244.077C196.648 240.021 198.725 227.75 196.027 212.821C195.82 211.681 195.582 210.517 195.312 209.33C196.067 209.086 196.806 208.833 197.529 208.573C211.183 203.613 220.079 195.593 220.079 187.397C220.074 179.524 211.757 171.92 198.887 167.063ZM166.861 145.051C175.657 136.659 183.879 133.347 187.628 135.714C191.618 138.236 193.169 148.406 190.662 161.744C190.496 162.613 190.318 163.479 190.126 164.342C184.876 163.037 179.553 162.115 174.192 161.584C171.122 156.749 167.757 152.146 164.12 147.806C165.01 146.862 165.922 145.943 166.856 145.051H166.861ZM136.093 194.083C137.171 196.364 138.297 198.616 139.472 200.841C140.669 203.11 141.916 205.346 143.213 207.549C139.524 207.111 135.858 206.464 132.23 205.613C133.283 201.889 134.579 198.02 136.093 194.083ZM136.093 180.963C134.604 177.11 133.342 173.32 132.307 169.661C135.708 168.827 139.333 168.146 143.112 167.63C141.845 169.791 140.627 171.984 139.457 174.208C138.287 176.432 137.163 178.684 136.086 180.963H136.093ZM138.799 187.524C140.368 183.946 142.058 180.437 143.869 176.996C145.678 173.557 147.604 170.197 149.646 166.916C153.191 166.623 156.826 166.468 160.498 166.468C164.169 166.468 167.826 166.623 171.369 166.919C173.39 170.193 175.304 173.541 177.112 176.964C178.919 180.386 180.631 183.879 182.248 187.443C180.653 191.034 178.945 194.558 177.124 198.015C175.318 201.453 173.415 204.823 171.414 208.125C167.876 208.396 164.214 208.545 160.49 208.545C156.766 208.545 153.174 208.418 149.701 208.171C147.643 204.879 145.702 201.504 143.876 198.047C142.051 194.59 140.356 191.083 138.792 187.524H138.799ZM181.531 200.803C182.731 198.526 183.883 196.219 184.986 193.883C186.5 197.635 187.836 201.47 188.989 205.372C185.318 206.276 181.606 206.969 177.869 207.449C179.13 205.261 180.351 203.045 181.531 200.803ZM184.937 180.965C183.838 178.676 182.695 176.413 181.508 174.178C180.35 171.974 179.142 169.797 177.886 167.646C181.687 168.173 185.334 168.873 188.753 169.729C187.654 173.542 186.38 177.292 184.937 180.965ZM160.547 151.794C163.026 154.757 165.367 157.854 167.561 161.074C162.869 160.829 158.173 160.829 153.474 161.074C155.79 157.724 158.161 154.615 160.547 151.794ZM133.097 135.88C137.084 133.35 145.9 136.966 155.192 145.998C155.786 146.576 156.384 147.182 156.98 147.809C153.324 152.148 149.935 156.747 146.836 161.576C141.486 162.103 136.174 163.01 130.932 164.291C130.629 162.959 130.356 161.618 130.112 160.267C127.866 147.717 129.353 138.255 133.097 135.88ZM127.285 204.253C126.292 203.944 125.311 203.608 124.343 203.246C118.533 201.074 113.734 198.24 110.44 195.153C107.49 192.387 105.996 189.626 105.996 187.389C105.996 182.635 112.466 176.57 123.255 172.457C124.611 171.941 125.978 171.47 127.357 171.043C128.959 176.674 130.9 182.184 133.166 187.535C130.873 192.961 128.908 198.546 127.285 204.253ZM154.874 229.683C150.249 234.114 145.617 237.255 141.533 238.838C137.863 240.258 134.941 240.298 133.176 239.182C129.417 236.807 127.853 227.634 129.986 215.33C130.239 213.882 130.529 212.434 130.855 210.986C136.149 212.233 141.515 213.085 146.915 213.535C150.045 218.39 153.461 223.015 157.144 227.381C156.404 228.177 155.646 228.942 154.874 229.683ZM160.689 223.379C158.276 220.526 155.867 217.369 153.519 213.975C155.801 214.073 158.125 214.122 160.49 214.122C162.918 214.122 165.321 214.065 167.69 213.948C165.504 217.22 163.167 220.368 160.689 223.379ZM191.603 231.141C190.893 235.333 189.465 238.129 187.7 239.248C183.944 241.631 175.912 238.534 167.253 230.365C166.26 229.431 165.267 228.429 164.256 227.378C167.867 222.995 171.204 218.351 174.244 213.478C179.674 212.975 185.066 212.064 190.381 210.75C190.625 211.825 190.84 212.878 191.027 213.91C192.221 220.507 192.392 226.474 191.603 231.141ZM195.923 203.276C195.272 203.512 194.602 203.74 193.922 203.963C192.255 198.305 190.238 192.777 187.886 187.419C190.15 182.131 192.088 176.684 193.686 171.113C194.905 171.501 196.089 171.909 197.228 172.34C208.256 176.499 214.984 182.657 214.984 187.389C214.984 192.438 207.718 198.992 195.923 203.276Z" fill="#3A3A3A"/>
<path d="M160.49 199.052C162.603 199.059 164.67 198.381 166.43 197.103C168.191 195.825 169.564 194.004 170.378 191.872C171.191 189.739 171.407 187.391 170.999 185.124C170.591 182.857 169.577 180.773 168.086 179.137C166.594 177.5 164.692 176.385 162.62 175.931C160.549 175.478 158.4 175.707 156.448 176.589C154.495 177.471 152.826 178.968 151.651 180.888C150.476 182.809 149.849 185.067 149.849 187.378C149.847 188.909 150.119 190.425 150.653 191.84C151.186 193.256 151.969 194.542 152.957 195.626C153.946 196.71 155.119 197.571 156.412 198.159C157.705 198.746 159.09 199.05 160.49 199.052Z" fill="#3A3A3A"/>
<rect x="102.421" y="351" width="116.138" height="29" rx="10" fill="#3A3A3A"/>
<path d="M276.925 85.162C271.862 81.4112 265.797 79.6182 259.695 80.0679C253.593 80.5175 247.803 83.1839 243.246 87.6436C238.688 92.1033 235.624 98.1005 234.54 104.682C233.456 111.265 234.414 118.054 237.262 123.972C240.111 129.89 244.686 134.598 250.261 137.348C255.836 140.097 262.092 140.73 268.034 139.147C273.976 137.564 279.264 133.855 283.058 128.609C286.852 123.363 288.934 116.882 288.973 110.194L282.476 110.148C282.446 115.252 280.857 120.199 277.962 124.202C275.067 128.206 271.031 131.036 266.496 132.245C261.961 133.453 257.187 132.97 252.932 130.871C248.677 128.773 245.186 125.18 243.012 120.663C240.838 116.147 240.106 110.965 240.934 105.942C241.761 100.919 244.1 96.3416 247.578 92.938C251.056 89.5345 255.475 87.4995 260.132 87.1564C264.789 86.8132 269.417 88.1816 273.282 91.0441L276.925 85.162Z" fill="#EEEEEE"/>
<rect x="28.3487" y="216" width="13.7171" height="76" fill="#EEEEEE"/>
<rect x="45.7237" y="208" width="12.8026" height="84" fill="#EEEEEE"/>
<rect x="62.1842" y="263" width="12.8026" height="29" fill="#EEEEEE"/>
<rect x="78.6447" y="277" width="12.8026" height="15" fill="#EEEEEE"/>
<path d="M420.37 299.373C411.747 299.373 403.798 297.158 396.52 292.729C389.322 288.299 383.508 282.406 379.078 275.049C374.728 267.614 372.553 259.466 372.553 250.607L372.79 173.602C372.79 164.584 374.965 156.476 379.316 149.278C383.587 142 389.362 136.187 396.639 131.836C403.916 127.406 411.827 125.191 420.37 125.191C429.229 125.191 437.179 127.367 444.219 131.717C451.338 136.068 457.033 141.921 461.305 149.278C465.655 156.555 467.83 164.663 467.83 173.602L468.068 250.607C468.068 259.466 465.932 267.574 461.661 274.931C457.31 282.366 451.536 288.299 444.337 292.729C437.139 297.158 429.15 299.373 420.37 299.373ZM420.37 270.066C425.274 270.066 429.545 268.088 433.184 264.133C436.823 260.099 438.642 255.59 438.642 250.607L438.405 173.602C438.405 168.223 436.704 163.674 433.303 159.957C429.901 156.239 425.59 154.38 420.37 154.38C415.386 154.38 411.115 156.199 407.555 159.838C403.995 163.477 402.216 168.064 402.216 173.602V250.607C402.216 255.907 403.995 260.495 407.555 264.371C411.115 268.167 415.386 270.066 420.37 270.066ZM514.935 297H487.645C486.854 297 486.459 296.604 486.459 295.813L486.933 128.87C486.933 128.237 487.25 127.92 487.883 127.92H534.632C549.503 127.92 561.249 132.469 569.871 141.565C578.573 150.583 582.923 162.883 582.923 178.466C582.923 189.857 580.669 199.784 576.16 208.248C571.572 216.633 565.64 223.119 558.362 227.707C551.085 232.295 543.175 234.589 534.632 234.589H516.122V295.813C516.122 296.604 515.726 297 514.935 297ZM534.632 156.753L516.122 156.99V205.163H534.632C539.773 205.163 544.243 202.711 548.039 197.807C551.836 192.823 553.735 186.376 553.735 178.466C553.735 172.138 552.034 166.957 548.633 162.923C545.231 158.81 540.564 156.753 534.632 156.753ZM678.913 297H600.365C599.732 297 599.416 296.604 599.416 295.813L599.653 128.87C599.653 128.237 599.97 127.92 600.602 127.92H678.676C679.308 127.92 679.625 128.316 679.625 129.107V156.278C679.625 156.911 679.308 157.228 678.676 157.228H628.842V195.196H678.676C679.308 195.196 679.625 195.513 679.625 196.146L679.862 223.673C679.862 224.306 679.546 224.622 678.913 224.622H628.842V267.1H678.913C679.546 267.1 679.862 267.495 679.862 268.286V296.051C679.862 296.684 679.546 297 678.913 297ZM727.916 297H703.593C702.327 297 701.694 296.446 701.694 295.339L701.457 129.819C701.457 128.553 702.09 127.92 703.355 127.92H725.306L766.36 223.673L765.173 129.819C765.173 128.553 765.885 127.92 767.309 127.92H791.395C792.345 127.92 792.819 128.553 792.819 129.819L793.057 295.576C793.057 296.525 792.661 297 791.87 297H770.513L728.391 207.536L730.171 295.102C730.171 296.367 729.419 297 727.916 297ZM858.909 296.763L815.363 297C814.572 297 814.177 296.604 814.177 295.813L814.651 128.87C814.651 128.237 814.968 127.92 815.6 127.92L861.044 127.683C870.062 127.446 878.209 129.502 885.487 133.853C892.843 138.204 898.697 144.097 903.047 151.532C907.477 158.889 909.692 167.036 909.692 175.975V245.742C909.692 255.076 907.437 263.619 902.929 271.371C898.341 279.044 892.25 285.174 884.656 289.762C877.062 294.271 868.48 296.604 858.909 296.763ZM861.044 156.753L844.077 156.99L843.84 267.1H858.909C864.92 267.1 869.983 265.003 874.096 260.811C878.209 256.619 880.266 251.596 880.266 245.742V175.737C880.266 170.596 878.368 166.126 874.571 162.33C870.774 158.454 866.265 156.595 861.044 156.753ZM920.608 295.813L950.745 128.87C950.904 128.237 951.299 127.92 951.932 127.92H987.172C987.805 127.92 988.2 128.237 988.358 128.87L1017.31 295.813C1017.39 296.604 1017.07 297 1016.36 297H989.426C988.635 297 988.2 296.604 988.121 295.813L985.511 278.016H952.407L949.796 295.813C949.717 296.604 949.322 297 948.61 297H921.557C920.924 297 920.608 296.604 920.608 295.813ZM968.187 183.806L957.271 252.031H980.646L970.679 183.806L969.255 174.788L968.187 183.806ZM1073.79 299.373C1065.17 299.373 1057.22 297.158 1049.94 292.729C1042.74 288.299 1036.97 282.406 1032.62 275.049C1028.34 267.614 1026.21 259.466 1026.21 250.607V239.454C1026.21 238.583 1026.6 238.148 1027.39 238.148H1054.68C1055.32 238.148 1055.63 238.583 1055.63 239.454V250.607C1055.63 255.907 1057.41 260.495 1060.97 264.371C1064.53 268.167 1068.8 270.066 1073.79 270.066C1078.85 270.066 1083.16 268.128 1086.72 264.252C1090.28 260.297 1092.06 255.749 1092.06 250.607C1092.06 244.674 1088.18 239.493 1080.43 235.063C1079.17 234.272 1077.51 233.323 1075.45 232.216C1073.47 231.029 1071.1 229.685 1068.33 228.182C1065.56 226.679 1062.87 225.215 1060.26 223.792C1057.65 222.289 1055.12 220.865 1052.67 219.52C1043.81 214.299 1037.2 207.773 1032.85 199.942C1028.58 192.032 1026.45 183.173 1026.45 173.364C1026.45 164.347 1028.66 156.199 1033.09 148.922C1037.52 141.724 1043.29 136.028 1050.41 131.836C1057.61 127.564 1065.4 125.429 1073.79 125.429C1082.41 125.429 1090.32 127.564 1097.52 131.836C1104.72 136.187 1110.45 141.961 1114.72 149.159C1119.07 156.357 1121.25 164.426 1121.25 173.364V193.298C1121.25 193.931 1120.93 194.247 1120.3 194.247H1093.01C1092.38 194.247 1092.06 193.931 1092.06 193.298L1091.82 173.364C1091.82 167.669 1090.04 163.042 1086.48 159.482C1082.92 155.922 1078.69 154.143 1073.79 154.143C1068.8 154.143 1064.53 156.041 1060.97 159.838C1057.41 163.635 1055.63 168.144 1055.63 173.364C1055.63 178.664 1056.74 183.094 1058.96 186.653C1061.25 190.213 1065.4 193.614 1071.41 196.857C1072.05 197.174 1073.51 197.965 1075.81 199.23C1078.1 200.496 1080.63 201.92 1083.4 203.502C1086.25 205.005 1088.82 206.389 1091.11 207.655C1093.41 208.841 1094.79 209.553 1095.26 209.791C1103.33 214.299 1109.7 219.836 1114.37 226.402C1119.11 232.967 1121.49 241.036 1121.49 250.607C1121.49 259.862 1119.35 268.167 1115.08 275.524C1110.73 282.88 1104.95 288.694 1097.76 292.966C1090.56 297.237 1082.57 299.373 1073.79 299.373ZM1166.81 297H1139.28C1138.65 297 1138.33 296.604 1138.33 295.813L1138.57 128.87C1138.57 128.237 1138.97 127.92 1139.76 127.92H1166.81C1167.6 127.92 1168 128.237 1168 128.87L1167.76 194.959H1204.19V128.87C1204.19 128.237 1204.5 127.92 1205.14 127.92H1232.19C1232.98 127.92 1233.38 128.237 1233.38 128.87L1233.85 295.813C1233.85 296.604 1233.45 297 1232.66 297H1205.37C1204.58 297 1204.19 296.604 1204.19 295.813V224.385H1167.76V295.813C1167.76 296.604 1167.44 297 1166.81 297Z" fill="#3A3A3A"/>
</svg>
